<mxfile host="app.diagrams.net" modified="2020-12-10T15:20:55.071Z" agent="5.0 (Windows NT 10.0; Win64; x64) AppleWebKit/537.36 (KHTML, like Gecko) Chrome/87.0.4280.88 Safari/537.36" etag="-JZCH-8fkdujnbmrt446" version="14.0.0" type="github">
  <diagram id="ybUfuFw8ea-CHFbWOAjj" name="Logical Routing Detail">
    <mxGraphModel dx="2062" dy="1065" grid="1" gridSize="10" guides="1" tooltips="1" connect="1" arrows="1" fold="1" page="1" pageScale="1" pageWidth="1700" pageHeight="1100" math="0" shadow="0">
      <root>
        <mxCell id="7eDJe8UgWT6jdxHGijZa-0" />
        <mxCell id="7eDJe8UgWT6jdxHGijZa-1" parent="7eDJe8UgWT6jdxHGijZa-0" />
        <mxCell id="t1rqnOKn8YPt1P-S3waj-0" value="" style="pointerEvents=1;shadow=0;dashed=0;html=1;strokeColor=none;fillColor=#434445;aspect=fixed;labelPosition=center;verticalLabelPosition=bottom;verticalAlign=top;align=center;outlineConnect=0;shape=mxgraph.vvd.physical_upstream_router;fontColor=#FFFFFF;" parent="7eDJe8UgWT6jdxHGijZa-1" vertex="1">
          <mxGeometry x="510" y="990" width="90" height="90" as="geometry" />
        </mxCell>
        <mxCell id="t1rqnOKn8YPt1P-S3waj-1" value="" style="pointerEvents=1;shadow=0;dashed=0;html=1;strokeColor=none;fillColor=#434445;aspect=fixed;labelPosition=center;verticalLabelPosition=bottom;verticalAlign=top;align=center;outlineConnect=0;shape=mxgraph.vvd.physical_upstream_router;fontColor=#FFFFFF;" parent="7eDJe8UgWT6jdxHGijZa-1" vertex="1">
          <mxGeometry x="1080" y="990" width="90" height="90" as="geometry" />
        </mxCell>
        <mxCell id="DcmSvm7YLu4Xs5LXC8q1-0" value="&lt;font color=&quot;#000000&quot;&gt;&lt;b&gt;Zcs&amp;lt;City&amp;gt;&amp;lt;Az&amp;gt;Leaf-#&lt;/b&gt;&lt;br&gt;&amp;lt;Model&amp;gt;&lt;br&gt;&amp;lt;Management IP&amp;gt;&lt;br&gt;&amp;lt;Peer Networks&amp;gt;&lt;br&gt;&lt;/font&gt;" style="text;html=1;align=right;verticalAlign=middle;resizable=0;points=[];autosize=1;fontColor=#FFFFFF;" parent="7eDJe8UgWT6jdxHGijZa-1" vertex="1">
          <mxGeometry x="340" y="1005" width="140" height="60" as="geometry" />
        </mxCell>
        <mxCell id="DcmSvm7YLu4Xs5LXC8q1-1" value="&lt;font color=&quot;#000000&quot;&gt;&lt;b&gt;Zcs&amp;lt;City&amp;gt;&amp;lt;Az&amp;gt;Leaf-#&lt;/b&gt;&lt;br&gt;&amp;lt;Model&amp;gt;&lt;br&gt;&amp;lt;Management IP&amp;gt;&lt;br&gt;&amp;lt;Peer Networks&amp;gt;&lt;br&gt;&lt;/font&gt;" style="text;html=1;align=left;verticalAlign=middle;resizable=0;points=[];autosize=1;fontColor=#FFFFFF;" parent="7eDJe8UgWT6jdxHGijZa-1" vertex="1">
          <mxGeometry x="1190" y="1005" width="140" height="60" as="geometry" />
        </mxCell>
        <mxCell id="PRShFBE_9NoNyRxM8n8l-0" value="" style="pointerEvents=1;shadow=0;dashed=0;html=1;strokeColor=none;fillColor=#434445;aspect=fixed;labelPosition=center;verticalLabelPosition=bottom;verticalAlign=top;align=center;outlineConnect=0;shape=mxgraph.vvd.physical_upstream_router;" vertex="1" parent="7eDJe8UgWT6jdxHGijZa-1">
          <mxGeometry x="660" y="30" width="80" height="80" as="geometry" />
        </mxCell>
        <mxCell id="PRShFBE_9NoNyRxM8n8l-1" value="" style="pointerEvents=1;shadow=0;dashed=0;html=1;strokeColor=none;fillColor=#434445;aspect=fixed;labelPosition=center;verticalLabelPosition=bottom;verticalAlign=top;align=center;outlineConnect=0;shape=mxgraph.vvd.physical_upstream_router;" vertex="1" parent="7eDJe8UgWT6jdxHGijZa-1">
          <mxGeometry x="860" y="30" width="80" height="80" as="geometry" />
        </mxCell>
        <mxCell id="PRShFBE_9NoNyRxM8n8l-2" value="" style="pointerEvents=1;shadow=0;dashed=0;html=1;strokeColor=none;fillColor=#434445;aspect=fixed;labelPosition=center;verticalLabelPosition=bottom;verticalAlign=top;align=center;outlineConnect=0;shape=mxgraph.vvd.physical_upstream_router;" vertex="1" parent="7eDJe8UgWT6jdxHGijZa-1">
          <mxGeometry x="760" y="30" width="80" height="80" as="geometry" />
        </mxCell>
        <mxCell id="PRShFBE_9NoNyRxM8n8l-3" value="" style="pointerEvents=1;shadow=0;dashed=0;html=1;strokeColor=none;fillColor=#434445;aspect=fixed;labelPosition=center;verticalLabelPosition=bottom;verticalAlign=top;align=center;outlineConnect=0;shape=mxgraph.vvd.physical_upstream_router;" vertex="1" parent="7eDJe8UgWT6jdxHGijZa-1">
          <mxGeometry x="960" y="30" width="80" height="80" as="geometry" />
        </mxCell>
        <mxCell id="PRShFBE_9NoNyRxM8n8l-4" value="&lt;b&gt;Zcs&amp;lt;city&amp;gt;&amp;lt;az&amp;gt;Spine-N&lt;/b&gt;" style="text;html=1;align=center;verticalAlign=middle;resizable=0;points=[];autosize=1;" vertex="1" parent="7eDJe8UgWT6jdxHGijZa-1">
          <mxGeometry x="1050" y="60" width="140" height="20" as="geometry" />
        </mxCell>
      </root>
    </mxGraphModel>
  </diagram>
</mxfile>
